<svg width="512" height="512" viewBox="0 0 512 512" fill="none" xmlns="http://www.w3.org/2000/svg">
<g filter="url(#filter0_d_10_2)">
<path d="M256 32L160 160H208V288L128 368V416H384V368L304 288V160H352L256 32Z" fill="#4A148C"/>
<path d="M224 416V448H288V416H224Z" fill="#F57C00"/>
<path d="M208 288L128 368V416H208V288Z" fill="#6A1B9A"/>
<path d="M304 288L384 368V416H304V288Z" fill="#6A1B9A"/>
<path d="M256 32L208 160H304L256 32Z" fill="#E1BEE7"/>
<path d="M128 368H384V384H128V368Z" fill="#4A148C"/>
<path d="M180 180L160 220L140 180L180 180Z" transform="rotate(45 160 200)" fill="#00BFFF"/>
<path d="M332 180L352 220L372 180L332 180Z" transform="rotate(-45 352 200)" fill="#00BFFF"/>
</g>
<defs>
<filter id="filter0_d_10_2" x="0" y="0" width="512" height="512" filterUnits="userSpaceOnUse" color-interpolation-filters="sRGB">
<feFlood flood-opacity="0" result="BackgroundImageFix"/>
<feColorMatrix in="SourceAlpha" type="matrix" values="0 0 0 0 0 0 0 0 0 0 0 0 0 0 0 0 0 0 127 0" result="hardAlpha"/>
<feDropShadow dx="0" dy="4" blur="16" stdDeviation="16" flood-color="#00BFFF" flood-opacity="0.8"/>
<feComposite in2="hardAlpha" operator="out"/>
<feColorMatrix type="matrix" values="0 0 0 0 0.0235294 0 0 0 0 0.815686 0 0 0 0 1 0 0 0 1 0"/>
<feBlend mode="normal" in2="BackgroundImageFix" result="effect1_dropShadow_10_2"/>
<feBlend mode="normal" in="SourceGraphic" in2="effect1_dropShadow_10_2" result="shape"/>
</filter>
</defs>
</svg>